<?xml version="1.0" standalone="no"?>
<!DOCTYPE svg PUBLIC "-//W3C//DTD SVG 20010904//EN"
 "http://www.w3.org/TR/2001/REC-SVG-20010904/DTD/svg10.dtd">
<svg version="1.0" xmlns="http://www.w3.org/2000/svg"
 width="1200.000000pt" height="1200.000000pt" viewBox="0 0 1200.000000 1200.000000"
 preserveAspectRatio="xMidYMid meet">

<g transform="translate(0.000000,1200.000000) scale(0.100000,-0.100000)"
fill="#000000" stroke="none">
<path d="M4937 10396 c-284 -166 -521 -306 -526 -312 -6 -5 -13 -207 -17 -461
l-7 -453 -126 -73 c-69 -41 -299 -174 -511 -297 -212 -123 -391 -228 -398
-235 -11 -10 -14 -263 -19 -1378 l-5 -1366 39 -25 c21 -13 252 -148 513 -299
1861 -1074 2617 -1509 2647 -1525 19 -11 78 21 556 298 l534 311 7 457 c4 251
8 457 9 458 1 1 232 135 512 298 281 163 516 300 522 304 10 6 14 298 18 1373
3 750 2 1370 -3 1376 -7 12 -363 219 -1597 931 -291 168 -768 442 -1059 610
-291 168 -538 307 -550 308 -13 2 -215 -111 -539 -300z m1113 -68 c649 -374
1332 -768 2033 -1173 l567 -328 0 -1333 c0 -857 -3 -1334 -10 -1334 -5 0 -237
131 -515 292 l-505 291 0 454 0 453 -37 23 c-21 13 -260 151 -530 307 l-493
284 -2 455 -3 454 -532 306 -532 306 -1 433 0 434 33 -20 c17 -11 255 -148
527 -304z m-600 -115 l0 -428 -38 -21 c-20 -11 -247 -143 -504 -292 -257 -150
-470 -272 -473 -272 -3 0 -5 191 -5 425 l0 425 27 17 c51 34 978 572 986 572
4 1 7 -191 7 -426z m542 -761 c274 -158 498 -289 498 -292 0 -3 -87 -55 -193
-117 -105 -61 -332 -193 -504 -292 l-311 -182 -499 287 c-274 158 -504 292
-510 298 -10 9 110 82 490 303 290 169 508 290 517 287 8 -3 239 -134 512
-292z m-1070 -610 c273 -158 497 -291 498 -297 0 -11 -977 -584 -997 -585 -17
0 -1018 579 -1016 588 4 11 986 581 1003 581 8 1 239 -129 512 -287z m1598 0
c0 -154 -3 -346 -7 -429 l-6 -151 -181 -105 c-509 -296 -783 -455 -803 -466
l-23 -12 0 428 0 428 503 292 c276 161 505 292 510 292 4 1 7 -124 7 -277z
m-2633 -626 l508 -293 5 -458 5 -457 525 -303 525 -303 3 -455 2 -454 535
-309 535 -309 0 -433 0 -434 -22 14 c-13 8 -252 147 -533 308 -280 161 -766
442 -1080 623 -313 181 -785 453 -1047 604 l-478 276 0 1339 c0 736 2 1338 4
1338 2 0 233 -132 513 -294z m1566 -567 c-5 -4 -219 -129 -478 -279 -258 -150
-485 -281 -503 -292 l-32 -20 2 432 3 431 505 294 505 294 3 -427 c1 -234 -1
-429 -5 -433z m1335 438 c136 -79 363 -210 505 -292 141 -82 257 -152 257
-156 0 -5 -904 -534 -987 -578 -21 -11 -73 17 -533 281 -280 161 -509 295
-509 298 0 6 1000 588 1012 589 4 1 119 -63 255 -142z m-790 -772 c276 -159
498 -293 494 -297 -14 -14 -997 -581 -1007 -581 -5 0 -239 132 -518 293 -477
275 -507 294 -485 306 12 7 239 139 503 293 264 154 487 279 496 278 9 -1 241
-132 517 -292z m1582 -143 l0 -428 -402 -234 c-222 -129 -451 -262 -511 -297
l-107 -62 2 431 3 432 504 293 c278 161 506 293 508 293 2 0 3 -193 3 -428z
m-1062 -619 l-3 -427 -504 -293 c-277 -161 -505 -293 -507 -293 -7 0 -2 753 4
808 l7 53 495 289 c272 159 498 289 503 289 4 1 6 -191 5 -426z m1600 -143
l510 -295 -121 -71 c-591 -345 -889 -515 -900 -512 -8 2 -240 133 -515 293
-308 177 -498 293 -492 299 14 14 994 584 1001 583 3 -1 236 -135 517 -297z
m-1056 -618 c377 -218 494 -290 485 -298 -7 -7 -234 -140 -505 -298 l-492
-286 -498 287 c-273 157 -502 291 -509 297 -9 8 115 85 490 303 284 165 509
290 517 287 8 -3 239 -134 512 -292z m528 -754 l0 -433 -500 -290 c-275 -159
-505 -291 -510 -293 -7 -2 -10 147 -10 425 l0 429 508 296 c279 163 508 297
510 297 1 1 2 -194 2 -431z"/>
<path d="M5477 3130 c-131 -33 -191 -131 -191 -315 0 -57 7 -112 18 -150 60
-202 346 -242 450 -62 42 72 39 79 -27 93 l-58 11 -16 -31 c-37 -75 -85 -98
-147 -72 -59 24 -81 85 -81 216 0 115 12 150 61 189 52 41 126 18 154 -49 14
-34 12 -34 79 -18 31 7 51 17 51 25 0 20 -29 74 -54 101 -48 54 -158 82 -239
62z"/>
<path d="M4007 2815 l-105 -315 68 0 68 0 19 73 20 72 110 3 111 3 19 -73 20
-73 68 -3 c52 -2 66 0 63 10 -3 7 -49 149 -103 316 l-99 302 -77 0 -77 0 -105
-315z m218 94 c19 -68 35 -132 35 -141 0 -16 -10 -18 -76 -18 -68 0 -76 2 -72
18 43 161 74 270 76 268 1 -2 18 -59 37 -127z"/>
<path d="M4640 2816 l0 -317 178 3 c156 3 182 5 216 24 134 70 116 263 -26
291 l-43 9 39 19 c58 29 81 66 80 128 0 64 -23 101 -78 129 -35 18 -63 22
-203 26 l-163 5 0 -317z m284 193 c20 -16 26 -29 26 -58 0 -57 -27 -76 -109
-76 l-66 0 -3 78 -3 77 64 0 c50 0 70 -5 91 -21z m43 -263 c31 -37 31 -89 -2
-121 -22 -23 -32 -25 -110 -25 l-85 0 0 83 c0 46 3 87 8 91 4 5 43 6 86 4 71
-4 82 -8 103 -32z"/>
<path d="M5980 2815 l0 -315 70 0 70 0 0 135 0 135 85 0 85 0 0 -135 0 -135
70 0 70 0 -2 313 -3 312 -67 3 -68 3 0 -126 0 -125 -85 0 -85 0 0 125 0 125
-70 0 -70 0 0 -315z"/>
<path d="M6667 3123 c-4 -3 -7 -28 -7 -55 l0 -48 75 0 75 0 0 -210 0 -210 -75
0 -75 0 0 -50 0 -50 215 0 215 0 0 50 0 50 -75 0 -75 0 0 210 0 210 75 0 75 0
0 55 0 55 -208 0 c-115 0 -212 -3 -215 -7z"/>
<path d="M7330 2816 l0 -316 65 0 65 0 0 120 0 120 43 0 42 0 65 -116 c36 -64
70 -118 76 -121 6 -2 41 -3 77 -1 l66 3 -61 100 c-33 55 -69 115 -80 132 l-20
33 29 11 c108 41 138 206 52 286 -49 45 -95 56 -261 61 l-158 5 0 -317z m305
181 c37 -31 37 -89 2 -125 -21 -21 -37 -26 -101 -30 l-76 -5 0 92 0 91 74 0
c64 0 79 -3 101 -23z"/>
</g>
</svg>
